<?xml version="1.0" encoding="UTF-8"?>
<!DOCTYPE svg PUBLIC "-//W3C//DTD SVG 1.1//EN" "http://www.w3.org/Graphics/SVG/1.1/DTD/svg11.dtd">
<!-- Creator: CorelDRAW -->
<svg xmlns="http://www.w3.org/2000/svg" xml:space="preserve" width="210mm" height="195mm" style="shape-rendering:geometricPrecision; text-rendering:geometricPrecision; image-rendering:optimizeQuality; fill-rule:evenodd; clip-rule:evenodd"
viewBox="0 0 210 195"
 xmlns:xlink="http://www.w3.org/1999/xlink">
 <defs>
  <style type="text/css">
   <![CDATA[
    .fil0 {fill:#957F66}
   ]]>
  </style>
 </defs>
 <g id="Layer_x0020_1">
  <metadata id="CorelCorpID_0Corel-Layer"/>
  <path class="fil0" d="M208.781 194.328l-20.2721 0c0,-10.1362 -11.5888,-18.2655 -34.7667,-24.4233 -9.7898,-2.6293 -31.2725,-6.4345 -64.4482,-11.4507 -23.1775,-3.5286 -34.7667,-7.0571 -34.7667,-10.6547 0,-5.8118 14.218,-10.5167 42.6541,-14.1833l-27.4673 0c-28.4361,2.525 -42.6541,7.576 -42.6541,15.2211 0,6.8148 8.164,12.419 24.5271,16.8125 15.1521,3.5286 30.2694,7.0224 45.4214,10.551 16.3284,4.6702 24.5272,10.6895 24.5272,18.1274l-120.317 0 0 -96.586 42.2737 0 0 -24.6305 -5.5699 4.5664 -11.4503 -16.3284 78.5277 -60.6773 23.8006 18.3345 0 -18.3345 21.5171 0 0 35.1471 32.9334 25.5302 -11.4507 16.3284 -5.5695 -4.5664 0 24.6305 42.5504 0 0 96.586zm-31.411 -132.667l-30.5117 -23.9044 0 -33.9708 -14.9102 0 0 22.5205 -26.9484 -21.2061 -72.6816 56.5608 6.6077 9.4441 8.7176 -7.2994 0 68.807 22.0707 0 0 -56.1457 27.4673 0 0 56.1457 64.8633 0 0 -68.807 8.7176 7.2994 6.6077 -9.4441zm-28.0904 48.4659l-36.0812 0 0 -33.6599 36.0812 0 0 33.6599z"/>
 </g>
</svg>
